<mxfile host="app.diagrams.net" agent="Mozilla/5.0 (Macintosh; Intel Mac OS X 10.15; rv:140.0) Gecko/20100101 Firefox/140.0" version="28.0.4">
  <diagram name="Page-1" id="HYPO_W0_CZPO0xO0YBl0">
    <mxGraphModel dx="2066" dy="1133" grid="1" gridSize="10" guides="1" tooltips="1" connect="1" arrows="1" fold="1" page="1" pageScale="1" pageWidth="4681" pageHeight="3300" math="0" shadow="0">
      <root>
        <mxCell id="0" />
        <mxCell id="1" parent="0" />
        <mxCell id="XGqoqJWx3mWhV6UJxJot-1" value="" style="rounded=1;whiteSpace=wrap;html=1;" vertex="1" parent="1">
          <mxGeometry x="340" y="170" width="1410" height="750" as="geometry" />
        </mxCell>
        <mxCell id="XGqoqJWx3mWhV6UJxJot-2" value="&lt;font style=&quot;font-size: 32px;&quot;&gt;&lt;b&gt;Budgetter&lt;/b&gt;&lt;/font&gt;" style="text;html=1;align=center;verticalAlign=middle;whiteSpace=wrap;rounded=0;" vertex="1" parent="1">
          <mxGeometry x="775" y="200" width="540" height="80" as="geometry" />
        </mxCell>
        <mxCell id="XGqoqJWx3mWhV6UJxJot-3" value="" style="rounded=1;whiteSpace=wrap;html=1;" vertex="1" parent="1">
          <mxGeometry x="410" y="420" width="630" height="450" as="geometry" />
        </mxCell>
        <mxCell id="XGqoqJWx3mWhV6UJxJot-4" value="" style="ellipse;whiteSpace=wrap;html=1;aspect=fixed;" vertex="1" parent="1">
          <mxGeometry x="1360" y="430" width="310" height="310" as="geometry" />
        </mxCell>
        <mxCell id="XGqoqJWx3mWhV6UJxJot-5" value="" style="rounded=0;whiteSpace=wrap;html=1;" vertex="1" parent="1">
          <mxGeometry x="450" y="490" width="560" height="60" as="geometry" />
        </mxCell>
        <mxCell id="XGqoqJWx3mWhV6UJxJot-6" value="" style="rounded=1;whiteSpace=wrap;html=1;" vertex="1" parent="1">
          <mxGeometry x="1060" y="420" width="200" height="440" as="geometry" />
        </mxCell>
        <mxCell id="XGqoqJWx3mWhV6UJxJot-7" value="" style="rounded=0;whiteSpace=wrap;html=1;" vertex="1" parent="1">
          <mxGeometry x="450" y="560" width="560" height="60" as="geometry" />
        </mxCell>
        <mxCell id="XGqoqJWx3mWhV6UJxJot-8" value="" style="rounded=0;whiteSpace=wrap;html=1;" vertex="1" parent="1">
          <mxGeometry x="450" y="630" width="560" height="60" as="geometry" />
        </mxCell>
        <mxCell id="XGqoqJWx3mWhV6UJxJot-9" value="" style="rounded=0;whiteSpace=wrap;html=1;" vertex="1" parent="1">
          <mxGeometry x="450" y="700" width="560" height="60" as="geometry" />
        </mxCell>
        <mxCell id="XGqoqJWx3mWhV6UJxJot-10" value="" style="rounded=0;whiteSpace=wrap;html=1;" vertex="1" parent="1">
          <mxGeometry x="450" y="770" width="560" height="60" as="geometry" />
        </mxCell>
        <mxCell id="XGqoqJWx3mWhV6UJxJot-12" value="" style="rounded=0;whiteSpace=wrap;html=1;fillColor=#d5e8d4;strokeColor=#82b366;" vertex="1" parent="1">
          <mxGeometry x="450" y="490" width="30" height="60" as="geometry" />
        </mxCell>
        <mxCell id="XGqoqJWx3mWhV6UJxJot-13" value="" style="rounded=0;whiteSpace=wrap;html=1;fillColor=#d5e8d4;strokeColor=#82b366;" vertex="1" parent="1">
          <mxGeometry x="450" y="560" width="30" height="60" as="geometry" />
        </mxCell>
        <mxCell id="XGqoqJWx3mWhV6UJxJot-14" value="" style="rounded=0;whiteSpace=wrap;html=1;fillColor=#e1d5e7;strokeColor=#9673a6;" vertex="1" parent="1">
          <mxGeometry x="450" y="630" width="30" height="60" as="geometry" />
        </mxCell>
        <mxCell id="XGqoqJWx3mWhV6UJxJot-15" value="" style="rounded=0;whiteSpace=wrap;html=1;fillColor=#ffe6cc;strokeColor=#d79b00;" vertex="1" parent="1">
          <mxGeometry x="450" y="700" width="30" height="60" as="geometry" />
        </mxCell>
        <mxCell id="XGqoqJWx3mWhV6UJxJot-16" value="" style="rounded=0;whiteSpace=wrap;html=1;fillColor=#d5e8d4;strokeColor=#82b366;" vertex="1" parent="1">
          <mxGeometry x="450" y="770" width="30" height="60" as="geometry" />
        </mxCell>
        <mxCell id="XGqoqJWx3mWhV6UJxJot-17" value="" style="ellipse;whiteSpace=wrap;html=1;fillColor=#d5e8d4;strokeColor=#82b366;" vertex="1" parent="1">
          <mxGeometry x="1080" y="490" width="20" height="20" as="geometry" />
        </mxCell>
        <mxCell id="XGqoqJWx3mWhV6UJxJot-18" value="" style="ellipse;whiteSpace=wrap;html=1;fillColor=#ffe6cc;strokeColor=#d79b00;" vertex="1" parent="1">
          <mxGeometry x="1080" y="540" width="20" height="20" as="geometry" />
        </mxCell>
        <mxCell id="XGqoqJWx3mWhV6UJxJot-19" value="" style="ellipse;whiteSpace=wrap;html=1;fillColor=#e1d5e7;strokeColor=#9673a6;" vertex="1" parent="1">
          <mxGeometry x="1080" y="590" width="20" height="20" as="geometry" />
        </mxCell>
        <mxCell id="XGqoqJWx3mWhV6UJxJot-20" value="" style="ellipse;whiteSpace=wrap;html=1;fillColor=#fff2cc;strokeColor=#d6b656;" vertex="1" parent="1">
          <mxGeometry x="1080" y="640" width="20" height="20" as="geometry" />
        </mxCell>
        <mxCell id="XGqoqJWx3mWhV6UJxJot-22" value="" style="endArrow=none;html=1;rounded=0;exitX=0;exitY=1;exitDx=0;exitDy=0;strokeWidth=2;" edge="1" parent="1" source="XGqoqJWx3mWhV6UJxJot-50">
          <mxGeometry width="50" height="50" relative="1" as="geometry">
            <mxPoint x="1570" y="525" as="sourcePoint" />
            <mxPoint x="1620" y="475" as="targetPoint" />
          </mxGeometry>
        </mxCell>
        <mxCell id="XGqoqJWx3mWhV6UJxJot-23" value="" style="endArrow=none;html=1;rounded=0;entryX=0.977;entryY=0.661;entryDx=0;entryDy=0;entryPerimeter=0;strokeWidth=2;" edge="1" parent="1" source="XGqoqJWx3mWhV6UJxJot-50" target="XGqoqJWx3mWhV6UJxJot-4">
          <mxGeometry width="50" height="50" relative="1" as="geometry">
            <mxPoint x="1510" y="585" as="sourcePoint" />
            <mxPoint x="1600" y="605" as="targetPoint" />
          </mxGeometry>
        </mxCell>
        <mxCell id="XGqoqJWx3mWhV6UJxJot-24" value="&lt;font style=&quot;font-size: 20px;&quot;&gt;Transactions&lt;/font&gt;" style="text;html=1;align=center;verticalAlign=middle;whiteSpace=wrap;rounded=0;" vertex="1" parent="1">
          <mxGeometry x="590" y="440" width="260" height="30" as="geometry" />
        </mxCell>
        <mxCell id="XGqoqJWx3mWhV6UJxJot-25" value="&lt;font style=&quot;font-size: 20px;&quot;&gt;Segments&lt;/font&gt;" style="text;html=1;align=center;verticalAlign=middle;whiteSpace=wrap;rounded=0;" vertex="1" parent="1">
          <mxGeometry x="1030" y="430" width="260" height="30" as="geometry" />
        </mxCell>
        <mxCell id="XGqoqJWx3mWhV6UJxJot-26" value="&lt;div align=&quot;left&quot;&gt;Food - 50%&lt;/div&gt;" style="text;html=1;align=left;verticalAlign=middle;whiteSpace=wrap;rounded=0;" vertex="1" parent="1">
          <mxGeometry x="1120" y="485" width="120" height="30" as="geometry" />
        </mxCell>
        <mxCell id="XGqoqJWx3mWhV6UJxJot-27" value="Lifestyle - 30 %" style="text;html=1;align=left;verticalAlign=middle;whiteSpace=wrap;rounded=0;" vertex="1" parent="1">
          <mxGeometry x="1120" y="535" width="120" height="30" as="geometry" />
        </mxCell>
        <mxCell id="XGqoqJWx3mWhV6UJxJot-28" value="Subscriptions - 20%" style="text;html=1;align=left;verticalAlign=middle;whiteSpace=wrap;rounded=0;" vertex="1" parent="1">
          <mxGeometry x="1115" y="585" width="120" height="30" as="geometry" />
        </mxCell>
        <mxCell id="XGqoqJWx3mWhV6UJxJot-29" value="Fitness - 0%" style="text;html=1;align=left;verticalAlign=middle;whiteSpace=wrap;rounded=0;" vertex="1" parent="1">
          <mxGeometry x="1120" y="635" width="110" height="30" as="geometry" />
        </mxCell>
        <mxCell id="XGqoqJWx3mWhV6UJxJot-30" value="Food&lt;span style=&quot;white-space: pre;&quot;&gt;&#x9;▾&lt;/span&gt;" style="rounded=1;whiteSpace=wrap;html=1;" vertex="1" parent="1">
          <mxGeometry x="900" y="505" width="90" height="30" as="geometry" />
        </mxCell>
        <mxCell id="XGqoqJWx3mWhV6UJxJot-31" value="Food&lt;span style=&quot;white-space: pre;&quot;&gt;&#x9;▾&lt;/span&gt;" style="rounded=1;whiteSpace=wrap;html=1;" vertex="1" parent="1">
          <mxGeometry x="900" y="575" width="90" height="30" as="geometry" />
        </mxCell>
        <mxCell id="XGqoqJWx3mWhV6UJxJot-32" value="Subscriptions&lt;span style=&quot;white-space: pre;&quot;&gt;&#x9;▾&lt;/span&gt;" style="rounded=1;whiteSpace=wrap;html=1;" vertex="1" parent="1">
          <mxGeometry x="900" y="645" width="90" height="30" as="geometry" />
        </mxCell>
        <mxCell id="XGqoqJWx3mWhV6UJxJot-33" value="Lifestyle&lt;span style=&quot;white-space: pre;&quot;&gt;&#x9;▾&lt;/span&gt;" style="rounded=1;whiteSpace=wrap;html=1;" vertex="1" parent="1">
          <mxGeometry x="900" y="715" width="90" height="30" as="geometry" />
        </mxCell>
        <mxCell id="XGqoqJWx3mWhV6UJxJot-34" value="Food&lt;span style=&quot;white-space: pre;&quot;&gt;&#x9;▾&lt;/span&gt;" style="rounded=1;whiteSpace=wrap;html=1;" vertex="1" parent="1">
          <mxGeometry x="900" y="785" width="90" height="30" as="geometry" />
        </mxCell>
        <mxCell id="XGqoqJWx3mWhV6UJxJot-35" value="&lt;b&gt;&lt;font style=&quot;font-size: 18px;&quot;&gt;$30.20&lt;/font&gt;&lt;/b&gt;" style="text;html=1;align=center;verticalAlign=middle;whiteSpace=wrap;rounded=0;" vertex="1" parent="1">
          <mxGeometry x="490" y="505" width="60" height="30" as="geometry" />
        </mxCell>
        <mxCell id="XGqoqJWx3mWhV6UJxJot-36" value="&lt;font style=&quot;font-size: 18px;&quot;&gt;&lt;b&gt;$10.00&lt;/b&gt;&lt;/font&gt;" style="text;html=1;align=center;verticalAlign=middle;whiteSpace=wrap;rounded=0;" vertex="1" parent="1">
          <mxGeometry x="490" y="575" width="60" height="30" as="geometry" />
        </mxCell>
        <mxCell id="XGqoqJWx3mWhV6UJxJot-37" value="&lt;b&gt;&lt;font style=&quot;font-size: 18px;&quot;&gt;$19.99&lt;/font&gt;&lt;/b&gt;" style="text;html=1;align=center;verticalAlign=middle;whiteSpace=wrap;rounded=0;" vertex="1" parent="1">
          <mxGeometry x="490" y="645" width="60" height="30" as="geometry" />
        </mxCell>
        <mxCell id="XGqoqJWx3mWhV6UJxJot-38" value="&lt;b&gt;&lt;font style=&quot;font-size: 18px;&quot;&gt;$15.00&lt;/font&gt;&lt;/b&gt;" style="text;html=1;align=center;verticalAlign=middle;whiteSpace=wrap;rounded=0;" vertex="1" parent="1">
          <mxGeometry x="490" y="715" width="60" height="30" as="geometry" />
        </mxCell>
        <mxCell id="XGqoqJWx3mWhV6UJxJot-39" value="&lt;b&gt;&lt;font style=&quot;font-size: 18px;&quot;&gt;$120.50&lt;/font&gt;&lt;/b&gt;" style="text;html=1;align=center;verticalAlign=middle;whiteSpace=wrap;rounded=0;" vertex="1" parent="1">
          <mxGeometry x="490" y="785" width="60" height="30" as="geometry" />
        </mxCell>
        <mxCell id="XGqoqJWx3mWhV6UJxJot-40" value="Transaction Name" style="text;html=1;align=left;verticalAlign=middle;whiteSpace=wrap;rounded=0;" vertex="1" parent="1">
          <mxGeometry x="570" y="495" width="300" height="30" as="geometry" />
        </mxCell>
        <mxCell id="XGqoqJWx3mWhV6UJxJot-41" value="date - particulars" style="text;html=1;align=left;verticalAlign=middle;whiteSpace=wrap;rounded=0;" vertex="1" parent="1">
          <mxGeometry x="570" y="520" width="300" height="30" as="geometry" />
        </mxCell>
        <mxCell id="XGqoqJWx3mWhV6UJxJot-42" value="Transaction Name" style="text;html=1;align=left;verticalAlign=middle;whiteSpace=wrap;rounded=0;" vertex="1" parent="1">
          <mxGeometry x="570" y="565" width="300" height="30" as="geometry" />
        </mxCell>
        <mxCell id="XGqoqJWx3mWhV6UJxJot-43" value="date - particulars" style="text;html=1;align=left;verticalAlign=middle;whiteSpace=wrap;rounded=0;" vertex="1" parent="1">
          <mxGeometry x="570" y="590" width="300" height="30" as="geometry" />
        </mxCell>
        <mxCell id="XGqoqJWx3mWhV6UJxJot-44" value="Transaction Name" style="text;html=1;align=left;verticalAlign=middle;whiteSpace=wrap;rounded=0;" vertex="1" parent="1">
          <mxGeometry x="570" y="630" width="300" height="30" as="geometry" />
        </mxCell>
        <mxCell id="XGqoqJWx3mWhV6UJxJot-45" value="date - particulars" style="text;html=1;align=left;verticalAlign=middle;whiteSpace=wrap;rounded=0;" vertex="1" parent="1">
          <mxGeometry x="570" y="660" width="300" height="30" as="geometry" />
        </mxCell>
        <mxCell id="XGqoqJWx3mWhV6UJxJot-46" value="Transaction Name" style="text;html=1;align=left;verticalAlign=middle;whiteSpace=wrap;rounded=0;" vertex="1" parent="1">
          <mxGeometry x="570" y="700" width="300" height="30" as="geometry" />
        </mxCell>
        <mxCell id="XGqoqJWx3mWhV6UJxJot-47" value="date - particulars" style="text;html=1;align=left;verticalAlign=middle;whiteSpace=wrap;rounded=0;" vertex="1" parent="1">
          <mxGeometry x="570" y="730" width="300" height="30" as="geometry" />
        </mxCell>
        <mxCell id="XGqoqJWx3mWhV6UJxJot-48" value="Transaction Name" style="text;html=1;align=left;verticalAlign=middle;whiteSpace=wrap;rounded=0;" vertex="1" parent="1">
          <mxGeometry x="570" y="770" width="300" height="30" as="geometry" />
        </mxCell>
        <mxCell id="XGqoqJWx3mWhV6UJxJot-49" value="date - particulars" style="text;html=1;align=left;verticalAlign=middle;whiteSpace=wrap;rounded=0;" vertex="1" parent="1">
          <mxGeometry x="570" y="800" width="300" height="30" as="geometry" />
        </mxCell>
        <mxCell id="XGqoqJWx3mWhV6UJxJot-51" value="" style="endArrow=none;html=1;rounded=0;entryX=0.977;entryY=0.661;entryDx=0;entryDy=0;entryPerimeter=0;strokeWidth=2;" edge="1" parent="1" target="XGqoqJWx3mWhV6UJxJot-50">
          <mxGeometry width="50" height="50" relative="1" as="geometry">
            <mxPoint x="1510" y="585" as="sourcePoint" />
            <mxPoint x="1663" y="635" as="targetPoint" />
          </mxGeometry>
        </mxCell>
        <mxCell id="XGqoqJWx3mWhV6UJxJot-52" value="" style="endArrow=none;html=1;rounded=0;exitX=0;exitY=1;exitDx=0;exitDy=0;strokeWidth=2;" edge="1" parent="1" source="XGqoqJWx3mWhV6UJxJot-4" target="XGqoqJWx3mWhV6UJxJot-50">
          <mxGeometry width="50" height="50" relative="1" as="geometry">
            <mxPoint x="1405" y="695" as="sourcePoint" />
            <mxPoint x="1620" y="475" as="targetPoint" />
          </mxGeometry>
        </mxCell>
        <mxCell id="XGqoqJWx3mWhV6UJxJot-50" value="" style="ellipse;whiteSpace=wrap;html=1;" vertex="1" parent="1">
          <mxGeometry x="1455" y="527.5" width="120" height="115" as="geometry" />
        </mxCell>
        <mxCell id="XGqoqJWx3mWhV6UJxJot-53" value="" style="rounded=1;whiteSpace=wrap;html=1;" vertex="1" parent="1">
          <mxGeometry x="410" y="300" width="1270" height="90" as="geometry" />
        </mxCell>
        <mxCell id="XGqoqJWx3mWhV6UJxJot-54" value="" style="rounded=1;whiteSpace=wrap;html=1;" vertex="1" parent="1">
          <mxGeometry x="1340" y="770" width="160" height="90" as="geometry" />
        </mxCell>
        <mxCell id="XGqoqJWx3mWhV6UJxJot-55" value="" style="rounded=1;whiteSpace=wrap;html=1;" vertex="1" parent="1">
          <mxGeometry x="1540" y="770" width="160" height="90" as="geometry" />
        </mxCell>
        <mxCell id="XGqoqJWx3mWhV6UJxJot-56" value="&lt;font style=&quot;font-size: 24px;&quot;&gt;$378.20&lt;/font&gt;" style="text;html=1;align=center;verticalAlign=middle;whiteSpace=wrap;rounded=0;" vertex="1" parent="1">
          <mxGeometry x="1370" y="790" width="100" height="30" as="geometry" />
        </mxCell>
        <mxCell id="XGqoqJWx3mWhV6UJxJot-57" value="&lt;font style=&quot;font-size: 24px;&quot;&gt;47.21%&lt;/font&gt;" style="text;html=1;align=center;verticalAlign=middle;whiteSpace=wrap;rounded=0;" vertex="1" parent="1">
          <mxGeometry x="1570" y="790" width="100" height="30" as="geometry" />
        </mxCell>
        <mxCell id="XGqoqJWx3mWhV6UJxJot-58" value="You Spent" style="text;html=1;align=center;verticalAlign=middle;whiteSpace=wrap;rounded=0;" vertex="1" parent="1">
          <mxGeometry x="1360" y="820" width="130" height="30" as="geometry" />
        </mxCell>
        <mxCell id="XGqoqJWx3mWhV6UJxJot-59" value="Of Monthly Income" style="text;html=1;align=center;verticalAlign=middle;whiteSpace=wrap;rounded=0;" vertex="1" parent="1">
          <mxGeometry x="1555" y="820" width="130" height="30" as="geometry" />
        </mxCell>
        <mxCell id="XGqoqJWx3mWhV6UJxJot-60" value="From&lt;span style=&quot;white-space: pre;&quot;&gt;&#x9;▾&lt;/span&gt;" style="rounded=1;whiteSpace=wrap;html=1;" vertex="1" parent="1">
          <mxGeometry x="450" y="340" width="90" height="30" as="geometry" />
        </mxCell>
        <mxCell id="XGqoqJWx3mWhV6UJxJot-61" value="To&lt;span style=&quot;white-space: pre;&quot;&gt;&#x9;▾&lt;/span&gt;" style="rounded=1;whiteSpace=wrap;html=1;" vertex="1" parent="1">
          <mxGeometry x="570" y="340" width="90" height="30" as="geometry" />
        </mxCell>
        <mxCell id="XGqoqJWx3mWhV6UJxJot-62" value="&lt;div align=&quot;left&quot;&gt;&lt;b&gt;&lt;font style=&quot;font-size: 14px;&quot;&gt;Time:&lt;/font&gt;&lt;/b&gt;&lt;/div&gt;" style="text;html=1;align=left;verticalAlign=middle;whiteSpace=wrap;rounded=0;" vertex="1" parent="1">
          <mxGeometry x="450" y="310" width="100" height="30" as="geometry" />
        </mxCell>
        <mxCell id="XGqoqJWx3mWhV6UJxJot-63" value="" style="rounded=1;whiteSpace=wrap;html=1;" vertex="1" parent="1">
          <mxGeometry x="730" y="340" width="310" height="30" as="geometry" />
        </mxCell>
        <mxCell id="XGqoqJWx3mWhV6UJxJot-64" value="&lt;font style=&quot;font-size: 14px;&quot;&gt;&lt;b&gt;Filters:&lt;/b&gt;&lt;/font&gt;" style="text;html=1;align=left;verticalAlign=middle;whiteSpace=wrap;rounded=0;" vertex="1" parent="1">
          <mxGeometry x="730" y="310" width="100" height="30" as="geometry" />
        </mxCell>
        <mxCell id="XGqoqJWx3mWhV6UJxJot-65" value="&lt;span style=&quot;white-space: pre;&quot;&gt;▾&lt;/span&gt;" style="text;html=1;align=center;verticalAlign=middle;whiteSpace=wrap;rounded=0;" vertex="1" parent="1">
          <mxGeometry x="1010" y="340" width="30" height="30" as="geometry" />
        </mxCell>
        <mxCell id="XGqoqJWx3mWhV6UJxJot-66" value="Food" style="rounded=1;whiteSpace=wrap;html=1;fillColor=#f8cecc;strokeColor=#b85450;" vertex="1" parent="1">
          <mxGeometry x="740" y="345" width="70" height="20" as="geometry" />
        </mxCell>
        <mxCell id="XGqoqJWx3mWhV6UJxJot-67" value="Lifestyle" style="rounded=1;whiteSpace=wrap;html=1;fillColor=#f8cecc;strokeColor=#b85450;" vertex="1" parent="1">
          <mxGeometry x="820" y="345" width="70" height="20" as="geometry" />
        </mxCell>
        <mxCell id="XGqoqJWx3mWhV6UJxJot-68" value="Subscriptions" style="rounded=1;whiteSpace=wrap;html=1;fillColor=#f8cecc;strokeColor=#b85450;" vertex="1" parent="1">
          <mxGeometry x="900" y="345" width="80" height="20" as="geometry" />
        </mxCell>
      </root>
    </mxGraphModel>
  </diagram>
</mxfile>
